# xmcd
#
# Track frame offsets:
#	150
#	16478
#	31684
#	51613
#	74726
#	88012
#	109048
#	124010
#	138468
#	158671
#	173203
#	196759
#	214728
#	233029
#
# Disc length: 3426 seconds
#
# Revision: 1
# Processed by: cddbd v1.5.2PL0 Copyright (c) Steve Scherf et al.
# Submitted via: audiograbber 1.83.01
#
DISCID=c10d600e
DTITLE=Marla Glen - Humanology
DYEAR=2011
DGENRE=Soul
TTITLE0=Garden Of Desire
TTITLE1=Run and Hide
TTITLE2=Maddy and Johnny
TTITLE3=Child
TTITLE4=Daddy
TTITLE5=New Young and Old
TTITLE6=Honestly
TTITLE7=I See Blood
TTITLE8=Rodney King
TTITLE9=Don't Try To Keep Me From Going On
TTITLE10=Believer feat. Xavier Naidoo
TTITLE11=White Roses For My Mother
TTITLE12=Fever
TTITLE13=Your Song
EXTD=
EXTT0=
EXTT1=
EXTT2=
EXTT3=
EXTT4=
EXTT5=
EXTT6=
EXTT7=
EXTT8=
EXTT9=
EXTT10=
EXTT11=
EXTT12=
EXTT13=
PLAYORDER=
